<svg width="14" height="13" viewBox="0 0 14 13" fill="none" xmlns="http://www.w3.org/2000/svg">
<path fill="currentColor" fill-rule="evenodd" clip-rule="evenodd" d="M13.6207 6.70872C13.6207 6.72748 13.6207 6.74624 13.6207 6.765C13.6096 6.84224 13.5986 6.91727 13.5875 6.989C13.5324 7.17107 13.4441 7.34321 13.3007 7.48555L8.58893 12.194C8.15858 12.6243 7.46341 12.6243 7.03307 12.194C6.60272 11.7625 6.60272 11.064 7.03307 10.6337L9.85789 7.80886L1.48272 7.80886C0.875824 7.80886 0.379272 7.31452 0.379272 6.70541C0.379272 6.09521 0.875824 5.60196 1.48272 5.60196L9.85789 5.60196L7.03307 2.77714C6.60272 2.34679 6.60272 1.64831 7.03307 1.21686C7.46341 0.786517 8.15858 0.786517 8.58893 1.21686L13.2786 5.90872C13.4882 6.10955 13.6207 6.39203 13.6207 6.70541L13.6207 6.70872Z"/>
</svg>
